<?xml version="1.0" encoding="UTF-8" standalone="no"?>
<!-- Created with Inkscape (http://www.inkscape.org/) -->

<svg
   xmlns:dc="http://purl.org/dc/elements/1.1/"
   xmlns:cc="http://creativecommons.org/ns#"
   xmlns:rdf="http://www.w3.org/1999/02/22-rdf-syntax-ns#"
   xmlns:svg="http://www.w3.org/2000/svg"
   xmlns="http://www.w3.org/2000/svg"
   xmlns:xlink="http://www.w3.org/1999/xlink"
   xmlns:sodipodi="http://sodipodi.sourceforge.net/DTD/sodipodi-0.dtd"
   xmlns:inkscape="http://www.inkscape.org/namespaces/inkscape"
   width="156.78951mm"
   height="156.78951mm"
   viewBox="0 0 156.7895 156.78951"
   version="1.1"
   id="svg8"
   sodipodi:docname="Map.svg"
   inkscape:version="0.92.3 (d244b95, 2018-08-02)">
  <defs
     id="defs2" />
  <sodipodi:namedview
     id="base"
     pagecolor="#ffffff"
     bordercolor="#666666"
     borderopacity="1.0"
     inkscape:pageopacity="0.0"
     inkscape:pageshadow="2"
     inkscape:zoom="0.82277649"
     inkscape:cx="211.80502"
     inkscape:cy="311.70686"
     inkscape:document-units="mm"
     inkscape:current-layer="layer1"
     showgrid="false"
     inkscape:window-width="1301"
     inkscape:window-height="744"
     inkscape:window-x="65"
     inkscape:window-y="24"
     inkscape:window-maximized="1"
     showguides="true"
     inkscape:lockguides="false" />
  <metadata
     id="metadata5">
    <rdf:RDF>
      <cc:Work
         rdf:about="">
        <dc:format>image/svg+xml</dc:format>
        <dc:type
           rdf:resource="http://purl.org/dc/dcmitype/StillImage" />
      </cc:Work>
    </rdf:RDF>
  </metadata>
  <g
     inkscape:label="Layer 1"
     inkscape:groupmode="layer"
     id="layer1"
     transform="translate(-25.605247,-53.605247)">
    <path
       style="opacity:1;fill:#0000ff;fill-opacity:1;stroke:none;stroke-width:2.04415536;stroke-linecap:butt;stroke-miterlimit:4;stroke-dasharray:none;stroke-opacity:1"
       d="M 104,54 H 91 v 13 h 13 z"
       id="rectB-1"
       inkscape:connector-curvature="0" />
    <use
       xlink:href="#rectB-1"
       transform="translate(-26,13)"
       inkscape:connector-curvature="0"
       id="rectB-2"
       x="0"
       y="0"
       width="100%"
       height="100%" />
    <use
       id="rectB-3"
       inkscape:connector-curvature="0"
       transform="translate(26,78)"
       xlink:href="#rectB-1"
       x="0"
       y="0"
       width="100%"
       height="100%" />
    <use
       id="rectB-4"
       inkscape:connector-curvature="0"
       transform="translate(-13,78)"
       xlink:href="#rectB-2"
       x="0"
       y="0"
       width="100%"
       height="100%" />
    <use
       id="rectB-5"
       inkscape:connector-curvature="0"
       transform="translate(-26,26)"
       xlink:href="#rectB-4" />
    <path
       style="opacity:1;fill:#952524;fill-opacity:1;stroke:none;stroke-width:0.118;stroke-linecap:butt;stroke-miterlimit:4;stroke-dasharray:none;stroke-opacity:1"
       d="m 26,73 v -6 h 7 6 v 6 7 h -6 -7 z"
       id="rectBR-1"
       inkscape:connector-curvature="0" />
    <use
       id="rectBR-2"
       x="0"
       y="0"
       width="100%"
       height="100%"
       xlink:href="#rectBR-1"
       transform="translate(52,13)" />
    <use
       transform="translate(78,39)"
       xlink:href="#rectBR-2"
       height="100%"
       width="100%"
       y="0"
       x="0"
       id="rectBR-3" />
    <use
       id="rectBR-4"
       x="0"
       y="0"
       width="100%"
       height="100%"
       xlink:href="#rectBR-3"
       transform="translate(-26,13)" />
    <use
       transform="translate(0,65)"
       xlink:href="#rectBR-3"
       height="100%"
       width="100%"
       y="0"
       x="0"
       id="rectBR-5" />
    <use
       id="rectBR-6"
       x="0"
       y="0"
       width="100%"
       height="100%"
       xlink:href="#rectBR-5"
       transform="translate(-91,13)" />
    <path
       style="opacity:1;fill:#825534;fill-opacity:1;stroke:none;stroke-width:3;stroke-linecap:butt;stroke-miterlimit:4;stroke-dasharray:none;stroke-opacity:1"
       d="m 156,67 h -13 v 13 h 13 z"
       id="rectBr-1"
       inkscape:connector-curvature="0" />
    <use
       id="rectBr-2"
       inkscape:connector-curvature="0"
       transform="translate(-65,39)"
       xlink:href="#rectBr-1" />
    <use
       xlink:href="#rectBr-1"
       transform="translate(-26,78)"
       inkscape:connector-curvature="0"
       id="rectBr-3"
       x="0"
       y="0"
       width="100%"
       height="100%" />
    <use
       height="100%"
       width="100%"
       y="0"
       x="0"
       id="rectBr-4"
       inkscape:connector-curvature="0"
       transform="translate(-26,13)"
       xlink:href="#rectBr-3" />
    <use
       xlink:href="#rectBr-4"
       transform="translate(-39,13)"
       inkscape:connector-curvature="0"
       id="rectBr-5"
       x="0"
       y="0"
       width="100%"
       height="100%" />
    <use
       xlink:href="#rectBr-3"
       transform="translate(39,52)"
       inkscape:connector-curvature="0"
       id="rectBr-6"
       x="0"
       y="0"
       width="100%"
       height="100%" />
    <path
       style="opacity:1;fill:#00ffff;fill-opacity:1;stroke:none;stroke-width:3;stroke-linecap:butt;stroke-miterlimit:4;stroke-dasharray:none;stroke-opacity:1"
       d="m 169,80 h 13 v 13 h -13 z"
       id="rectC-1"
       inkscape:connector-curvature="0" />
    <use
       id="rectC-2"
       inkscape:connector-curvature="0"
       transform="translate(-65,26)"
       xlink:href="#rectC-1" />
    <use
       xlink:href="#rectC-2"
       transform="translate(-78,39)"
       inkscape:connector-curvature="0"
       id="rectC-3"
       x="0"
       y="0"
       width="100%"
       height="100%" />
    <use
       height="100%"
       width="100%"
       y="0"
       x="0"
       id="rectC-4"
       inkscape:connector-curvature="0"
       transform="translate(39,26)"
       xlink:href="#rectC-3" />
    <use
       xlink:href="#rectC-4"
       transform="translate(-13,13)"
       inkscape:connector-curvature="0"
       id="rectC-5"
       x="0"
       y="0"
       width="100%"
       height="100%" />
    <use
       height="100%"
       width="100%"
       y="0"
       x="0"
       id="rectC-6"
       inkscape:connector-curvature="0"
       transform="translate(78,26)"
       xlink:href="#rectC-4" />
    <path
       style="opacity:1;fill:#228b22;fill-opacity:1;stroke:none;stroke-width:3;stroke-linecap:butt;stroke-miterlimit:4;stroke-dasharray:none;stroke-opacity:1"
       d="m 169,67 h 13 v 13 h -13 z"
       id="rectF-1"
       inkscape:connector-curvature="0" />
    <use
       xlink:href="#rectF-1"
       transform="translate(-39,52)"
       inkscape:connector-curvature="0"
       id="rectF-2"
       x="0"
       y="0"
       width="100%"
       height="100%" />
    <use
       height="100%"
       width="100%"
       y="0"
       x="0"
       id="rectF-3"
       inkscape:connector-curvature="0"
       transform="translate(-91)"
       xlink:href="#rectF-2" />
    <use
       xlink:href="#rectF-3"
       transform="translate(39,26)"
       inkscape:connector-curvature="0"
       id="rectF-4"
       x="0"
       y="0"
       width="100%"
       height="100%" />
    <use
       height="100%"
       width="100%"
       y="0"
       x="0"
       id="rectF-5"
       inkscape:connector-curvature="0"
       transform="translate(39,13)"
       xlink:href="#rectF-4" />
    <use
       xlink:href="#rectF-5"
       transform="translate(13,39)"
       inkscape:connector-curvature="0"
       id="rectF-6"
       x="0"
       y="0"
       width="100%"
       height="100%" />
    <path
       style="opacity:1;fill:#808080;fill-opacity:1;stroke:none;stroke-width:2.60159969;stroke-linecap:butt;stroke-miterlimit:4;stroke-dasharray:none;stroke-opacity:1"
       d="m 39,86 v -6 h 7 6 v 6 7 h -6 -7 z"
       id="rectG-1"
       inkscape:connector-curvature="0" />
    <use
       id="rectG-2"
       x="0"
       y="0"
       width="100%"
       height="100%"
       transform="translate(52,13)"
       xlink:href="#rectG-1" />
    <use
       id="rectG-3"
       x="0"
       y="0"
       width="100%"
       height="100%"
       xlink:href="#rectG-2"
       transform="translate(52)" />
    <use
       transform="translate(-13,13)"
       xlink:href="#rectG-3"
       height="100%"
       width="100%"
       y="0"
       x="0"
       id="rectG-4" />
    <use
       transform="translate(26,26)"
       xlink:href="#rectG-3"
       height="100%"
       width="100%"
       y="0"
       x="0"
       id="rectG-5" />
    <use
       xlink:href="#rectG-1"
       transform="translate(13,52)"
       height="100%"
       width="100%"
       y="0"
       x="0"
       id="rectG-6" />
    <use
       id="rectG-7"
       x="0"
       y="0"
       width="100%"
       height="100%"
       transform="translate(26,26)"
       xlink:href="#rectG-6" />
    <path
       style="opacity:1;fill:#b57edc;fill-opacity:1;stroke:none;stroke-width:3;stroke-linecap:butt;stroke-miterlimit:4;stroke-dasharray:none;stroke-opacity:1"
       d="m 143,54 h -13 v 13 h 13 z"
       id="rectL-1"
       inkscape:connector-curvature="0" />
    <use
       id="rectL-2"
       x="0"
       y="0"
       width="100%"
       height="100%"
       xlink:href="#rectL-1"
       transform="translate(-65,39)" />
    <use
       transform="translate(-39,39)"
       xlink:href="#rectL-2"
       height="100%"
       width="100%"
       y="0"
       x="0"
       id="rectL-3" />
    <use
       id="rectL-4"
       x="0"
       y="0"
       width="100%"
       height="100%"
       xlink:href="#rectL-3"
       transform="translate(143,52)" />
    <use
       transform="translate(-52,13)"
       xlink:href="#rectL-4"
       height="100%"
       width="100%"
       y="0"
       x="0"
       id="rectL-5" />
    <path
       style="opacity:1;fill:#bfff00;fill-opacity:1;stroke:none;stroke-width:3;stroke-linecap:butt;stroke-miterlimit:4;stroke-dasharray:none;stroke-opacity:1"
       d="m 117,80 h -13 v 13 h 13 z"
       id="rectLG-1"
       inkscape:connector-curvature="0" />
    <use
       id="rectLG-2"
       x="0"
       y="0"
       width="100%"
       height="100%"
       xlink:href="#rectLG-1"
       transform="translate(-65,26)" />
    <use
       transform="translate(13,39)"
       xlink:href="#rectLG-1"
       height="100%"
       width="100%"
       y="0"
       x="0"
       id="rectLG-3" />
    <use
       id="rectLG-4"
       x="0"
       y="0"
       width="100%"
       height="100%"
       xlink:href="#rectLG-3"
       transform="translate(-13,26)" />
    <use
       transform="translate(52,39)"
       xlink:href="#rectLG-3"
       height="100%"
       width="100%"
       y="0"
       x="0"
       id="rectLG-5" />
    <use
       id="rectLG-6"
       x="0"
       y="0"
       width="100%"
       height="100%"
       xlink:href="#rectLG-4"
       transform="translate(-26,26)" />
    <path
       style="opacity:1;fill:#bfff00;fill-opacity:1;stroke:#bfff00;stroke-width:4.3307457;stroke-linecap:butt;stroke-miterlimit:4;stroke-dasharray:none;stroke-opacity:1"
       d="m 200.48104,468.73517 v -22.79339 h 22.22357 22.22356 v 22.79339 22.7934 h -22.22356 -22.22357 z"
       id="path5156"
       inkscape:connector-curvature="0"
       transform="matrix(0.26458333,0,0,0.26458333,25.63151,53.572302)" />
    <path
       style="opacity:1;fill:#ffa500;fill-opacity:1;stroke:#ffa500;stroke-width:0.75;stroke-linecap:butt;stroke-miterlimit:4;stroke-dasharray:none;stroke-opacity:1"
       d="m 156,54 h 13 v 13 h -13 z"
       id="rectO-1"
       inkscape:connector-curvature="0" />
    <use
       id="rectO-2"
       inkscape:connector-curvature="0"
       transform="translate(-117,13)"
       xlink:href="#rectO-1"
       x="0"
       y="0"
       width="100%"
       height="100%" />
    <use
       id="rectO-3"
       x="0"
       y="0"
       width="100%"
       height="100%"
       xlink:href="#rectO-1"
       transform="translate(-39,39)" />
    <use
       id="rectO-4"
       inkscape:connector-curvature="0"
       transform="translate(-52,13)"
       xlink:href="#rectO-3" />
    <use
       xlink:href="#rectO-4"
       transform="translate(26,39)"
       inkscape:connector-curvature="0"
       id="rectO-5"
       x="0"
       y="0"
       width="100%"
       height="100%" />
    <use
       height="100%"
       width="100%"
       y="0"
       x="0"
       id="rectO-6"
       inkscape:connector-curvature="0"
       transform="translate(78,52)"
       xlink:href="#rectO-5" />
    <path
       style="opacity:1;fill:#ff00ff;fill-opacity:1;stroke:none;stroke-width:3;stroke-linecap:butt;stroke-miterlimit:4;stroke-dasharray:none;stroke-opacity:1"
       d="m 169,54 h 13 v 13 h -13 z"
       id="rectP-1"
       inkscape:connector-curvature="0" />
    <use
       id="rectP-2"
       x="0"
       y="0"
       width="100%"
       height="100%"
       xlink:href="#rectP-1"
       transform="translate(-13,26)" />
    <use
       id="rectP-3"
       x="0"
       y="0"
       width="100%"
       height="100%"
       xlink:href="#rectP-2"
       transform="translate(-130,26)" />
    <use
       transform="translate(78,26)"
       xlink:href="#rectP-3"
       height="100%"
       width="100%"
       y="0"
       x="0"
       id="rectP-4" />
    <use
       id="rectP-5"
       x="0"
       y="0"
       width="100%"
       height="100%"
       xlink:href="#rectP-4"
       transform="translate(39,39)" />
    <use
       transform="translate(-65,52)"
       xlink:href="#rectP-4"
       height="100%"
       width="100%"
       y="0"
       x="0"
       id="rectP-6" />
    <path
       style="opacity:1;fill:#ff0000;fill-opacity:1;stroke:none;stroke-width:0.79374999;stroke-linecap:butt;stroke-miterlimit:4;stroke-dasharray:none;stroke-opacity:1"
       d="M 26,54 H 39 V 67 H 26 Z"
       id="rectR-1"
       inkscape:connector-curvature="0"
       sodipodi:nodetypes="ccccc" />
    <use
       id="rectR-2"
       inkscape:connector-curvature="0"
       transform="translate(65,13)"
       xlink:href="#rectR-1" />
    <use
       id="rectR-3"
       x="0"
       y="0"
       width="100%"
       height="100%"
       xlink:href="#rectR-2"
       transform="translate(39,26)" />
    <use
       transform="translate(-65,39)"
       xlink:href="#rectR-3"
       height="100%"
       width="100%"
       y="0"
       x="0"
       id="rectR-4" />
    <use
       id="rectR-5"
       x="0"
       y="0"
       width="100%"
       height="100%"
       xlink:href="#rectR-3"
       transform="translate(26,52)" />
    <use
       transform="translate(0,52)"
       xlink:href="#rectR-4"
       height="100%"
       width="100%"
       y="0"
       x="0"
       id="rectR-6" />
    <path
       style="opacity:1;fill:#800080;fill-opacity:1;stroke:none;stroke-width:3;stroke-linecap:butt;stroke-miterlimit:4;stroke-dasharray:none;stroke-opacity:1"
       d="m 156,54 h -13 v 13 h 13 z"
       id="rectV-1"
       inkscape:connector-curvature="0" />
    <use
       id="rectV-2"
       x="0"
       y="0"
       width="100%"
       height="100%"
       xlink:href="#rectV-1"
       transform="translate(-52,26)" />
    <use
       transform="translate(0,26)"
       xlink:href="#rectV-2"
       height="100%"
       width="100%"
       y="0"
       x="0"
       id="rectV-3" />
    <use
       id="rectV-4"
       x="0"
       y="0"
       width="100%"
       height="100%"
       xlink:href="#rectV-3"
       transform="translate(-52,26)" />
    <use
       transform="translate(26,26)"
       xlink:href="#rectV-4"
       height="100%"
       width="100%"
       y="0"
       x="0"
       id="rectV-5" />
    <use
       id="rectV-6"
       x="0"
       y="0"
       width="100%"
       height="100%"
       xlink:href="#rectV-5"
       transform="translate(39,26)" />
    <rect
       style="opacity:1;fill:#ffff00;fill-opacity:1;stroke:none;stroke-width:0.79374999;stroke-linecap:butt;stroke-miterlimit:4;stroke-dasharray:none;stroke-opacity:1"
       id="rectY-1"
       width="13"
       height="13"
       x="39"
       y="54" />
    <use
       id="rectY-2"
       x="0"
       y="0"
       width="100%"
       height="100%"
       xlink:href="#rectY-1"
       transform="translate(104,26)" />
    <use
       id="rectY-3"
       x="0"
       y="0"
       width="100%"
       height="100%"
       xlink:href="#rectY-1"
       transform="translate(13,39)" />
    <use
       transform="translate(13,78)"
       xlink:href="#rectY-2"
       height="100%"
       width="100%"
       y="0"
       x="0"
       id="rectY-4" />
    <use
       id="rectY-5"
       x="0"
       y="0"
       width="100%"
       height="100%"
       xlink:href="#rectY-4"
       transform="translate(-52,13)" />
    <use
       transform="translate(13,13)"
       xlink:href="#rectY-5"
       height="100%"
       width="100%"
       y="0"
       x="0"
       id="rectY-6" />
    <rect
       style="opacity:1;fill:none;fill-opacity:1;stroke:#bcbcbc;stroke-width:0.79374999;stroke-linecap:butt;stroke-miterlimit:4;stroke-dasharray:none;stroke-opacity:1"
       id="rect0"
       width="13"
       height="13"
       x="26"
       y="54" />
    <use
       id="rect0-2"
       xlink:href="#rect0"
       width="13"
       height="13"
       x="0"
       y="0"
       transform="translate(26)" />
    <use
       id="rect0-4"
       width="13"
       height="13"
       x="0"
       y="0"
       transform="translate(52)"
       xlink:href="#rect0" />
    <use
       id="rect0-6"
       width="13"
       height="13"
       x="0"
       y="0"
       transform="translate(78)"
       xlink:href="#rect0" />
    <use
       id="rect0-8"
       width="13"
       height="13"
       x="0"
       y="0"
       xlink:href="#rect0"
       transform="translate(104)" />
    <use
       id="rect0-10"
       width="13"
       height="13"
       x="0"
       y="0"
       xlink:href="#rect0"
       transform="translate(130)" />
    <use
       transform="translate(13,13)"
       xlink:href="#rect0"
       y="0"
       x="0"
       height="13"
       width="13"
       id="rect0-13" />
    <use
       id="rect0-15"
       width="13"
       height="13"
       x="0"
       y="0"
       xlink:href="#rect0"
       transform="translate(39,13)" />
    <use
       id="rect0-17"
       width="13"
       height="13"
       x="0"
       y="0"
       xlink:href="#rect0"
       transform="translate(65,13)" />
    <use
       id="rect0-19"
       width="13"
       height="13"
       x="0"
       y="0"
       transform="translate(91,13)"
       xlink:href="#rect0" />
    <use
       id="rect0-21"
       width="13"
       height="13"
       x="0"
       y="0"
       xlink:href="#rect0"
       transform="translate(117,13)" />
    <use
       id="rect0-23"
       width="13"
       height="13"
       x="0"
       y="0"
       transform="translate(143,13)"
       xlink:href="#rect0" />
    <use
       id="rect0-24"
       x="0"
       y="0"
       width="100%"
       height="100%"
       transform="translate(0,26)"
       xlink:href="#rect0" />
    <use
       id="rect0-26"
       width="13"
       height="13"
       x="0"
       y="0"
       xlink:href="#rect0"
       transform="translate(26,26)" />
    <use
       id="rect0-28"
       width="13"
       height="13"
       x="0"
       y="0"
       transform="translate(52,26)"
       xlink:href="#rect0" />
    <use
       id="rect0-30"
       width="13"
       height="13"
       x="0"
       y="0"
       transform="translate(78,26)"
       xlink:href="#rect0" />
    <use
       id="rect0-32"
       x="0"
       y="0"
       width="100%"
       height="100%"
       xlink:href="#rect0"
       transform="translate(104,26)" />
    <use
       id="rect0-34"
       x="0"
       y="0"
       width="100%"
       height="100%"
       xlink:href="#rect0"
       transform="translate(130,26)" />
    <use
       id="rect0-37"
       x="0"
       y="0"
       width="100%"
       height="100%"
       xlink:href="#rect0"
       transform="translate(13,39)" />
    <use
       id="rect0-39"
       x="0"
       y="0"
       width="100%"
       height="100%"
       xlink:href="#rect0"
       transform="translate(39,39)" />
    <use
       id="rect0-41"
       x="0"
       y="0"
       width="100%"
       height="100%"
       xlink:href="#rect0-39"
       transform="translate(26)" />
    <use
       id="rect0-43"
       x="0"
       y="0"
       width="100%"
       height="100%"
       xlink:href="#rect0-41"
       transform="translate(26)" />
    <use
       id="rect0-45"
       x="0"
       y="0"
       width="100%"
       height="100%"
       xlink:href="#rect0-43"
       transform="translate(26)" />
    <use
       transform="translate(26)"
       xlink:href="#rect0-45"
       height="100%"
       width="100%"
       y="0"
       x="0"
       id="rect0-47" />
    <use
       id="rect0-48"
       x="0"
       y="0"
       width="100%"
       height="100%"
       xlink:href="#rect0-24"
       transform="translate(0,26)" />
    <use
       transform="translate(26)"
       xlink:href="#rect0-48"
       height="100%"
       width="100%"
       y="0"
       x="0"
       id="rect0-50" />
    <use
       id="rect0-52"
       x="0"
       y="0"
       width="100%"
       height="100%"
       xlink:href="#rect0-50"
       transform="translate(26)" />
    <use
       transform="translate(26)"
       xlink:href="#rect0-52"
       height="100%"
       width="100%"
       y="0"
       x="0"
       id="rect0-54" />
    <use
       id="rect0-56"
       x="0"
       y="0"
       width="100%"
       height="100%"
       xlink:href="#rect0-54"
       transform="translate(26)" />
    <use
       transform="translate(26)"
       xlink:href="#rect0-56"
       height="100%"
       width="100%"
       y="0"
       x="0"
       id="rect0-58" />
    <use
       id="rect0-61"
       x="0"
       y="0"
       width="100%"
       height="100%"
       xlink:href="#rect0-37"
       transform="translate(0,26)" />
    <use
       transform="translate(26)"
       xlink:href="#rect0-61"
       height="100%"
       width="100%"
       y="0"
       x="0"
       id="rect0-63" />
    <use
       id="rect0-65"
       x="0"
       y="0"
       width="100%"
       height="100%"
       xlink:href="#rect0-63"
       transform="translate(26)" />
    <use
       transform="translate(26)"
       xlink:href="#rect0-65"
       height="100%"
       width="100%"
       y="0"
       x="0"
       id="rect0-67" />
    <use
       id="rect0-69"
       x="0"
       y="0"
       width="100%"
       height="100%"
       xlink:href="#rect0-67"
       transform="translate(26)" />
    <use
       transform="translate(26)"
       xlink:href="#rect0-69"
       height="100%"
       width="100%"
       y="0"
       x="0"
       id="rect0-71" />
    <use
       transform="translate(0,26)"
       xlink:href="#rect0-48"
       height="100%"
       width="100%"
       y="0"
       x="0"
       id="rect0-72" />
    <use
       id="rect0-74"
       x="0"
       y="0"
       width="100%"
       height="100%"
       xlink:href="#rect0-72"
       transform="translate(26)" />
    <use
       transform="translate(26)"
       xlink:href="#rect0-74"
       height="100%"
       width="100%"
       y="0"
       x="0"
       id="rect0-76" />
    <use
       id="rect0-78"
       x="0"
       y="0"
       width="100%"
       height="100%"
       xlink:href="#rect0-76"
       transform="translate(26)" />
    <use
       transform="translate(26)"
       xlink:href="#rect0-78"
       height="100%"
       width="100%"
       y="0"
       x="0"
       id="rect0-80" />
    <use
       id="rect0-82"
       x="0"
       y="0"
       width="100%"
       height="100%"
       xlink:href="#rect0-80"
       transform="translate(26)" />
    <use
       transform="translate(0,26)"
       xlink:href="#rect0-61"
       height="100%"
       width="100%"
       y="0"
       x="0"
       id="rect0-85" />
    <use
       transform="translate(26)"
       xlink:href="#rect0-85"
       height="100%"
       width="100%"
       y="0"
       x="0"
       id="rect0-87" />
    <use
       id="rect0-89"
       x="0"
       y="0"
       width="100%"
       height="100%"
       xlink:href="#rect0-87"
       transform="translate(26)" />
    <use
       transform="translate(26)"
       xlink:href="#rect0-89"
       height="100%"
       width="100%"
       y="0"
       x="0"
       id="rect0-91" />
    <use
       id="rect0-93"
       x="0"
       y="0"
       width="100%"
       height="100%"
       xlink:href="#rect0-91"
       transform="translate(26)" />
    <use
       transform="translate(26)"
       xlink:href="#rect0-93"
       height="100%"
       width="100%"
       y="0"
       x="0"
       id="rect0-95" />
    <use
       id="rect0-96"
       x="0"
       y="0"
       width="100%"
       height="100%"
       xlink:href="#rect0-72"
       transform="translate(0,26)" />
    <use
       id="rect0-98"
       x="0"
       y="0"
       width="100%"
       height="100%"
       xlink:href="#rect0-96"
       transform="translate(26)" />
    <use
       transform="translate(26)"
       xlink:href="#rect0-98"
       height="100%"
       width="100%"
       y="0"
       x="0"
       id="rect0-100" />
    <use
       id="rect0-102"
       x="0"
       y="0"
       width="100%"
       height="100%"
       xlink:href="#rect0-100"
       transform="translate(26)" />
    <use
       transform="translate(26)"
       xlink:href="#rect0-102"
       height="100%"
       width="100%"
       y="0"
       x="0"
       id="rect0-104" />
    <use
       id="rect0-106"
       x="0"
       y="0"
       width="100%"
       height="100%"
       xlink:href="#rect0-104"
       transform="translate(26)" />
    <use
       id="rect0-109"
       x="0"
       y="0"
       width="100%"
       height="100%"
       xlink:href="#rect0-85"
       transform="translate(0,26)" />
    <use
       transform="translate(26)"
       xlink:href="#rect0-109"
       height="100%"
       width="100%"
       y="0"
       x="0"
       id="rect0-111" />
    <use
       id="rect0-113"
       x="0"
       y="0"
       width="100%"
       height="100%"
       xlink:href="#rect0-111"
       transform="translate(26)" />
    <use
       transform="translate(26)"
       xlink:href="#rect0-113"
       height="100%"
       width="100%"
       y="0"
       x="0"
       id="rect0-115" />
    <use
       id="rect0-117"
       x="0"
       y="0"
       width="100%"
       height="100%"
       xlink:href="#rect0-115"
       transform="translate(26)" />
    <use
       transform="translate(26)"
       xlink:href="#rect0-117"
       height="100%"
       width="100%"
       y="0"
       x="0"
       id="rect0-119" />
    <use
       transform="translate(0,26)"
       xlink:href="#rect0-96"
       height="100%"
       width="100%"
       y="0"
       x="0"
       id="rect0-120" />
    <use
       id="rect0-122"
       x="0"
       y="0"
       width="100%"
       height="100%"
       xlink:href="#rect0-120"
       transform="translate(26)" />
    <use
       transform="translate(26)"
       xlink:href="#rect0-122"
       height="100%"
       width="100%"
       y="0"
       x="0"
       id="rect0-124" />
    <use
       id="rect0-126"
       x="0"
       y="0"
       width="100%"
       height="100%"
       xlink:href="#rect0-124"
       transform="translate(26)" />
    <use
       transform="translate(26)"
       xlink:href="#rect0-126"
       height="100%"
       width="100%"
       y="0"
       x="0"
       id="rect0-128" />
    <use
       id="rect0-130"
       x="0"
       y="0"
       width="100%"
       height="100%"
       xlink:href="#rect0-128"
       transform="translate(26)" />
    <use
       transform="translate(0,26)"
       xlink:href="#rect0-109"
       height="100%"
       width="100%"
       y="0"
       x="0"
       id="rect0-133" />
    <use
       transform="translate(26)"
       xlink:href="#rect0-133"
       height="100%"
       width="100%"
       y="0"
       x="0"
       id="rect0-135" />
    <use
       id="rect0-137"
       x="0"
       y="0"
       width="100%"
       height="100%"
       xlink:href="#rect0-135"
       transform="translate(26)" />
    <use
       transform="translate(26)"
       xlink:href="#rect0-137"
       height="100%"
       width="100%"
       y="0"
       x="0"
       id="rect0-139" />
    <use
       id="rect0-141"
       x="0"
       y="0"
       width="100%"
       height="100%"
       xlink:href="#rect0-139"
       transform="translate(26)" />
    <use
       transform="translate(26)"
       xlink:href="#rect0-141"
       height="100%"
       width="100%"
       y="0"
       x="0"
       id="rect0-143" />
    <image
       sodipodi:absref="/home/riverbui/Other projects/Mineseeker/Manual/img/100.png"
       xlink:href="100.png"
       width="11"
       height="11"
       preserveAspectRatio="none"
       id="image5"
       x="27"
       y="55" />
    <image
       sodipodi:absref="/home/riverbui/Other projects/Mineseeker/Manual/img/85.png"
       xlink:href="85.png"
       y="55"
       x="40"
       id="image4"
       preserveAspectRatio="none"
       height="11"
       width="11" />
    <image
       sodipodi:absref="/home/riverbui/Other projects/Mineseeker/Manual/img/11.png"
       xlink:href="11.png"
       y="55"
       x="92"
       id="image3"
       preserveAspectRatio="none"
       height="11"
       width="11" />
    <image
       sodipodi:absref="/home/riverbui/Other projects/Mineseeker/Manual/img/6.png"
       xlink:href="6.png"
       y="55"
       x="131"
       id="image0"
       preserveAspectRatio="none"
       height="11"
       width="11" />
    <image
       sodipodi:absref="/home/riverbui/Other projects/Mineseeker/Manual/img/6o.png"
       xlink:href="6o.png"
       y="55"
       x="144"
       id="image1"
       preserveAspectRatio="none"
       height="11"
       width="11" />
    <image
       sodipodi:absref="/home/riverbui/Other projects/Mineseeker/Manual/img/10.png"
       xlink:href="10.png"
       y="54"
       x="157"
       id="image2"
       preserveAspectRatio="none"
       height="12"
       width="12" />
    <image
       sodipodi:absref="/home/riverbui/Other projects/Mineseeker/Manual/img/63214.png"
       xlink:href="63214.png"
       y="54"
       x="170"
       id="image6"
       preserveAspectRatio="none"
       height="12"
       width="12" />
    <use
       y="0"
       x="0"
       id="image6-1"
       xlink:href="#image6"
       preserveAspectRatio="none"
       height="11"
       width="11"
       transform="translate(-143,13)" />
    <use
       id="image5-1"
       y="0"
       width="100%"
       height="100%"
       xlink:href="#image5"
       transform="translate(13,13)"
       x="0" />
    <use
       id="image3-1"
       x="0"
       y="0"
       width="100%"
       height="100%"
       xlink:href="#image3"
       transform="translate(-26,13)" />
    <use
       id="image1-1"
       x="0"
       y="0"
       width="100%"
       height="100%"
       xlink:href="#image1"
       transform="translate(-52,13)" />
    <use
       id="image4-1"
       x="0"
       y="0"
       width="100%"
       height="100%"
       xlink:href="#image4"
       transform="translate(65,13)" />
    <use
       id="image2-1"
       x="0"
       y="0"
       width="100%"
       height="100%"
       xlink:href="#image2"
       transform="translate(-13,13)" />
    <use
       id="image0-1"
       x="0"
       y="0"
       width="100%"
       height="100%"
       xlink:href="#image0"
       transform="translate(39,13)" />
    <use
       id="image1-2"
       x="0"
       y="0"
       width="100%"
       height="100%"
       xlink:href="#image1"
       transform="translate(-104,26)" />
    <use
       id="image2-2"
       x="0"
       y="0"
       width="100%"
       height="100%"
       xlink:href="#image2"
       transform="translate(-78,26)" />
    <use
       id="image0-2"
       x="0"
       y="0"
       width="100%"
       height="100%"
       xlink:href="#image0"
       transform="translate(-39,26)" />
    <use
       id="image6-2"
       x="0"
       y="0"
       width="100%"
       height="100%"
       xlink:href="#image6"
       transform="translate(-65,26)" />
    <use
       id="image3-2"
       x="0"
       y="0"
       width="100%"
       height="100%"
       xlink:href="#image3"
       transform="translate(52,26)" />
    <use
       id="image4-2"
       x="0"
       y="0"
       width="100%"
       height="100%"
       xlink:href="#image4"
       transform="translate(117,26)" />
    <use
       id="image5-2"
       x="0"
       y="0"
       width="100%"
       height="100%"
       xlink:href="#image5"
       transform="translate(143,26)" />
    <use
       id="image4-3"
       x="0"
       y="0"
       width="100%"
       height="100%"
       xlink:href="#image4"
       transform="translate(13,39)" />
    <use
       id="image2-3"
       x="0"
       y="0"
       width="100%"
       height="100%"
       xlink:href="#image2-2"
       transform="translate(-13,13)" />
    <use
       id="image1-3"
       x="0"
       y="0"
       width="100%"
       height="100%"
       xlink:href="#image1-2"
       transform="translate(39,13)" />
    <use
       id="image6-3"
       x="0"
       y="0"
       width="100%"
       height="100%"
       xlink:href="#image6-2"
       transform="translate(-13,13)" />
    <use
       id="image0-3"
       x="0"
       y="0"
       width="100%"
       height="100%"
       xlink:href="#image0-2"
       transform="translate(26,13)" />
    <use
       id="image3-3"
       x="0"
       y="0"
       width="100%"
       height="100%"
       xlink:href="#image3-2"
       transform="translate(-13,13)" />
    <use
       id="image5-3"
       x="0"
       y="0"
       width="100%"
       height="100%"
       xlink:href="#image5-2"
       transform="translate(-26,13)" />
    <use
       id="image4-4"
       x="0"
       y="0"
       width="100%"
       height="100%"
       xlink:href="#image4-3"
       transform="translate(-26,13)" />
    <use
       id="image2-4"
       x="0"
       y="0"
       width="100%"
       height="100%"
       xlink:href="#image2-3"
       transform="translate(-26,13)" />
    <use
       id="image0-4"
       x="0"
       y="0"
       width="100%"
       height="100%"
       xlink:href="#image0-2"
       transform="translate(-26,26)" />
    <use
       id="image3-4"
       x="0"
       y="0"
       width="100%"
       height="100%"
       xlink:href="#image3-3"
       transform="translate(-52,13)" />
    <use
       id="image1-4"
       x="0"
       y="0"
       width="100%"
       height="100%"
       xlink:href="#image1-3"
       transform="translate(26,13)" />
    <use
       transform="translate(-13,13)"
       xlink:href="#image5-3"
       height="100%"
       width="100%"
       y="0"
       x="0"
       id="image5-4" />
    <use
       id="image6-4"
       x="0"
       y="0"
       width="100%"
       height="100%"
       xlink:href="#image6-2"
       transform="translate(39,26)" />
    <use
       transform="translate(-26,13)"
       xlink:href="#image0-4"
       height="100%"
       width="100%"
       y="0"
       x="0"
       id="image0-5" />
    <use
       transform="translate(-39,26)"
       xlink:href="#image6-3"
       height="100%"
       width="100%"
       y="0"
       x="0"
       id="image6-5" />
    <use
       id="image5-5"
       x="0"
       y="0"
       width="100%"
       height="100%"
       xlink:href="#image5-4"
       transform="translate(-39)" />
    <use
       transform="translate(78,13)"
       xlink:href="#image2-4"
       height="100%"
       width="100%"
       y="0"
       x="0"
       id="image2-5" />
    <use
       transform="translate(26,13)"
       xlink:href="#image1-4"
       height="100%"
       width="100%"
       y="0"
       x="0"
       id="image1-5" />
    <use
       transform="translate(78,13)"
       xlink:href="#image3-4"
       height="100%"
       width="100%"
       y="0"
       x="0"
       id="image3-5" />
    <use
       transform="translate(13,39)"
       xlink:href="#image4-2"
       height="100%"
       width="100%"
       y="0"
       x="0"
       id="image4-5" />
    <use
       transform="translate(-13,26)"
       xlink:href="#image2-4"
       height="100%"
       width="100%"
       y="0"
       x="0"
       id="image2-6" />
    <use
       transform="translate(-39,26)"
       xlink:href="#image3-4"
       height="100%"
       width="100%"
       y="0"
       x="0"
       id="image3-6" />
    <use
       transform="translate(-26,39)"
       xlink:href="#image1-3"
       height="100%"
       width="100%"
       y="0"
       x="0"
       id="image1-6" />
    <use
       transform="translate(-26,26)"
       xlink:href="#image5-5"
       height="100%"
       width="100%"
       y="0"
       x="0"
       id="image5-6" />
    <use
       id="image0-6"
       x="0"
       y="0"
       width="100%"
       height="100%"
       xlink:href="#image0-5"
       transform="translate(65,13)" />
    <use
       id="image6-6"
       x="0"
       y="0"
       width="100%"
       height="100%"
       xlink:href="#image6-3"
       transform="translate(26,39)" />
    <use
       id="image4-6"
       x="0"
       y="0"
       width="100%"
       height="100%"
       xlink:href="#image4-5"
       transform="translate(-39,13)" />
    <use
       id="image0-7"
       x="0"
       y="0"
       width="100%"
       height="100%"
       xlink:href="#image0-5"
       transform="translate(-13,26)" />
    <use
       id="image5-7"
       x="0"
       y="0"
       width="100%"
       height="100%"
       xlink:href="#image5-6"
       transform="translate(-13,13)" />
    <use
       transform="translate(-39,13)"
       xlink:href="#image6-6"
       height="100%"
       width="100%"
       y="0"
       x="0"
       id="image6-7" />
    <use
       id="image2-7"
       x="0"
       y="0"
       width="100%"
       height="100%"
       xlink:href="#image2-5"
       transform="translate(-26,26)" />
    <use
       id="image3-7"
       x="0"
       y="0"
       width="100%"
       height="100%"
       xlink:href="#image3-6"
       transform="translate(65,13)" />
    <use
       transform="translate(-13,13)"
       xlink:href="#image4-6"
       height="100%"
       width="100%"
       y="0"
       x="0"
       id="image4-7" />
    <use
       id="image1-7"
       x="0"
       y="0"
       width="100%"
       height="100%"
       xlink:href="#image1-5"
       transform="translate(26,26)" />
    <use
       transform="translate(13,13)"
       xlink:href="#image5-7"
       height="100%"
       width="100%"
       y="0"
       x="0"
       id="image5-8" />
    <use
       transform="translate(52,13)"
       xlink:href="#image0-7"
       height="100%"
       width="100%"
       y="0"
       x="0"
       id="image0-8" />
    <use
       id="image4-8"
       x="0"
       y="0"
       width="100%"
       height="100%"
       xlink:href="#image4-7"
       transform="translate(-26,13)" />
    <use
       transform="translate(-39,13)"
       xlink:href="#image1-7"
       height="100%"
       width="100%"
       y="0"
       x="0"
       id="image1-8" />
    <use
       transform="translate(39,26)"
       xlink:href="#image6-6"
       height="100%"
       width="100%"
       y="0"
       x="0"
       id="image6-8" />
    <use
       id="image3-8"
       x="0"
       y="0"
       width="100%"
       height="100%"
       xlink:href="#image3-5"
       transform="translate(13,39)" />
    <use
       id="image1-9"
       x="0"
       y="0"
       width="100%"
       height="100%"
       xlink:href="#image1-6"
       transform="translate(-26,39)" />
    <use
       id="image3-9"
       x="0"
       y="0"
       width="100%"
       height="100%"
       xlink:href="#image3-6"
       transform="translate(13,39)" />
    <use
       id="image6-9"
       x="0"
       y="0"
       width="100%"
       height="100%"
       xlink:href="#image6-7"
       transform="translate(-13,26)" />
    <use
       transform="translate(-13,13)"
       xlink:href="#image4-8"
       height="100%"
       width="100%"
       y="0"
       x="0"
       id="image4-9" />
    <use
       id="image5-9"
       x="0"
       y="0"
       width="100%"
       height="100%"
       xlink:href="#image5-8"
       transform="translate(39,13)" />
    <use
       transform="translate(39,26)"
       xlink:href="#image2-7"
       height="100%"
       width="100%"
       y="0"
       x="0"
       id="image2-8" />
    <use
       id="image2-9"
       x="0"
       y="0"
       width="100%"
       height="100%"
       xlink:href="#image2-8"
       transform="translate(-26,13)" />
    <use
       id="image0-9"
       x="0"
       y="0"
       width="100%"
       height="100%"
       xlink:href="#image0-8"
       transform="translate(65,13)" />
    <use
       transform="translate(-26,13)"
       xlink:href="#image6-9"
       height="100%"
       width="100%"
       y="0"
       x="0"
       id="image6-10" />
    <use
       id="image0-10"
       x="0"
       y="0"
       width="100%"
       height="100%"
       xlink:href="#image0-8"
       transform="translate(-26,26)" />
    <use
       id="image4-10"
       x="0"
       y="0"
       width="100%"
       height="100%"
       xlink:href="#image4-9"
       transform="translate(-13,13)" />
    <use
       transform="translate(13,39)"
       xlink:href="#image3-7"
       height="100%"
       width="100%"
       y="0"
       x="0"
       id="image3-10" />
    <use
       transform="translate(52,13)"
       xlink:href="#image5-9"
       height="100%"
       width="100%"
       y="0"
       x="0"
       id="image5-10" />
    <use
       id="image1-10"
       x="0"
       y="0"
       width="100%"
       height="100%"
       xlink:href="#image1-7"
       transform="translate(13,39)" />
    <use
       transform="translate(-26,26)"
       xlink:href="#image3-9"
       height="100%"
       width="100%"
       y="0"
       x="0"
       id="image3-11" />
    <use
       transform="translate(39,26)"
       xlink:href="#image1-9"
       height="100%"
       width="100%"
       y="0"
       x="0"
       id="image1-11" />
    <use
       id="image5-11"
       x="0"
       y="0"
       width="100%"
       height="100%"
       xlink:href="#image5-9"
       transform="translate(13,26)" />
    <use
       id="image6-11"
       x="0"
       y="0"
       width="100%"
       height="100%"
       xlink:href="#image6-10"
       transform="translate(91,13)" />
    <use
       transform="translate(78,13)"
       xlink:href="#image4-10"
       height="100%"
       width="100%"
       y="0"
       x="0"
       id="image4-11" />
    <use
       transform="translate(13,26)"
       xlink:href="#image0-9"
       height="100%"
       width="100%"
       y="0"
       x="0"
       id="image0-11" />
    <use
       transform="translate(39,26)"
       xlink:href="#image2-8"
       height="100%"
       width="100%"
       y="0"
       x="0"
       id="image2-10" />
    <path
       style="opacity:1;fill:none;fill-opacity:1;stroke:#000000;stroke-width:0.78950506;stroke-linecap:butt;stroke-miterlimit:4;stroke-dasharray:none;stroke-opacity:1"
       d="M 52,210 V 197 H 78 V 184 H 52 V 171 H 78 V 145 H 65 m 13,13 h 13 v 39 h 13 v -13 h 13 v 13 h 13 v 13 M 91,171 h 26 13 M 65,132 H 39 V 67 M 78,93 V 80 H 91 V 67 H 26 m 0,104 H 39 V 158 H 65 V 119 H 52 v -13 h 26 v 13 h 13 v 26 h 26 v 13 h 13 v 26 h 26 v 13 h 13 v -13 h 13 M 65,106 V 93 h 26 v 13 h 13 m 0,0 v 13 m 0,0 h 13 V 80 h 13 v 13 h 13 v 13 h 13 V 80 h 13 v 39 h -26 v 13 m -13,39 h 26 V 158 H 143 V 145 H 130 V 132 M 169,80 V 67 H 143 V 54 m -13,0 v 13 h -26 v 65 h 52 v 13 h 26 M 52,210 H 26 V 54 H 182 V 210 H 52"
       id="pathFrame"
       inkscape:connector-curvature="0"
       sodipodi:nodetypes="ccccccccccccccccccccccccccccccccccccccccccccccccccccccccccccccccccccccccccccccccccccccccccccc" />
  </g>
</svg>
